<svg xmlns="http://www.w3.org/2000/svg" aria-hidden="true" style="position:absolute;width:0;height:0;overflow:hidden">
  <defs>
    <symbol id="icon-account_outline" viewBox="0 0 32 32">
      <path d="M15.987 5.76a5.122 5.122 0 0 1 3.62 8.74 5.122 5.122 0 0 1-7.24 0 5.12 5.12 0 0 1 3.62-8.74zm0 2.56a2.56 2.56 0 1 0 0 5.12 2.56 2.56 0 0 0 0-5.12zm0 8.96c3.418 0 10.24 1.702 10.24 5.12v3.84H5.747V22.4c0-3.418 6.822-5.12 10.24-5.12zm0 2.432c-3.802 0-7.808 1.869-7.808 2.688v1.408h15.616V22.4c0-.819-4.006-2.688-7.808-2.688z"/>
    </symbol>
    <symbol id="icon-arrow_left" viewBox="0 0 32 32">
      <path d="M0 32V0h32v32H0z"/>
      <path stroke-linecap="round" stroke-linejoin="round" stroke-width=".857" d="M18.667 9.334 12 16.001l6.667 6.667"/>
    </symbol>
    <symbol id="icon-arrow_left_sm" viewBox="0 0 32 32">
      <path stroke-linecap="round" stroke-linejoin="round" stroke-width="2" d="M13.333 22.667 20 16l-6.667-6.667"/>
    </symbol>
    <symbol id="icon-arrow_right_sm" viewBox="0 0 32 32">
      <path stroke-linecap="round" stroke-linejoin="round" stroke-width="1.92" d="m13.427 22.4 6.4-6.4-6.4-6.4"/>
    </symbol>
    <symbol id="icon-arrow-right" viewBox="0 0 32 32">
      <path d="M32 0v32H0V0h32z"/>
      <path stroke-linecap="round" stroke-linejoin="round" stroke-width=".857" d="M13.333 22.666 20 15.999l-6.667-6.667"/>
    </symbol>
    <symbol id="icon-bag" viewBox="0 0 32 32">
      <path d="M16 3.667a3.004 3.004 0 0 1 2.774 1.851c.151.364.228.754.228 1.148v.347C18.258 7 17.442 7 16.549 7h-1.095c-.896 0-1.711 0-2.453.013v-.347a3.004 3.004 0 0 1 3-3zm5 3.437c.184.016.368.035.552.057 1.347.165 2.457.516 3.4 1.299.944.783 1.491 1.809 1.904 3.103.397 1.252.7 2.863 1.08 4.888l.027.147c.536 2.857.959 5.109 1.036 6.884.079 1.82-.191 3.327-1.217 4.563-1.027 1.237-2.459 1.781-4.261 2.039-1.759.251-4.049.251-6.956.251h-1.127c-2.908 0-5.197 0-6.957-.251-1.803-.257-3.233-.801-4.26-2.039-1.027-1.236-1.299-2.743-1.219-4.563.079-1.775.5-4.027 1.036-6.884l.028-.147c.379-2.025.68-3.635 1.08-4.888.412-1.293.96-2.32 1.903-3.103.944-.783 2.053-1.132 3.4-1.299.179-.023.361-.041.552-.057v-.437a4.998 4.998 0 0 1 8.536-3.536 4.997 4.997 0 0 1 1.464 3.536v.437zM10.693 9.147c-1.14.14-1.829.405-2.368.853-.537.445-.925 1.073-1.275 2.169-.356 1.12-.637 2.611-1.032 4.716-.555 2.956-.948 5.067-1.019 6.684-.069 1.587.187 2.507.759 3.199.573.689 1.431 1.109 3.004 1.333 1.6.229 3.749.232 6.757.232h.96c3.009 0 5.156-.003 6.757-.231 1.573-.225 2.431-.645 3.004-1.335.573-.691.828-1.611.76-3.2-.072-1.615-.465-3.727-1.02-6.683-.395-2.107-.675-3.595-1.032-4.716-.349-1.096-.736-1.724-1.275-2.171s-1.227-.712-2.368-.853c-1.168-.144-2.684-.145-4.827-.145h-.96c-2.143 0-3.659.001-4.827.147z"/>
    </symbol>
    <symbol id="icon-basket" viewBox="0 0 32 32">
      <path stroke-linecap="round" stroke-width="2.56" d="M5.747 5.76h2.081c.726 0 1.088 0 1.377.159.119.066.227.15.32.25.224.242.312.594.488 1.298l.233.931c.129.517.195.776.294.993a2.57 2.57 0 0 0 1.851 1.446c.236.044.502.044 1.035.044"/>
      <path stroke-linecap="round" stroke-linejoin="round" stroke-width="2.56" d="M23.667 22.4H10.291c-.186 0-.279 0-.351-.008a1.29 1.29 0 0 1-.897-.524c-.105-.145-.178-.31-.214-.485s-.036-.356.001-.531a3.93 3.93 0 0 1 .104-.335c.067-.197.099-.296.136-.384a2.56 2.56 0 0 1 2.173-1.566c.095-.006.2-.006.406-.006h6.898"/>
      <path stroke-linecap="round" stroke-width="2.56" d="M19.224 18.56h-4.549c-1.556 0-2.335 0-2.935-.352a2.55 2.55 0 0 1-.667-.566c-.448-.535-.576-1.303-.831-2.838-.26-1.555-.389-2.333-.081-2.909.128-.24.306-.451.522-.617.517-.398 1.306-.398 2.883-.398h8.52c1.856 0 2.784 0 3.16.607.375.608-.041 1.437-.87 3.098l-.572 1.146c-.689 1.377-1.033 2.066-1.651 2.447-.62.383-1.389.383-2.929.383z"/>
      <path d="M22.387 27.52a1.28 1.28 0 1 0 0-2.56 1.28 1.28 0 0 0 0 2.56zM12.148 27.52a1.28 1.28 0 1 0 0-2.56 1.28 1.28 0 0 0 0 2.56z"/>
    </symbol>
    <symbol id="icon-chevron_up" viewBox="0 0 32 32">
      <path d="M24.665 20.907a1.455 1.455 0 0 1-2.057 0l-6.729-6.729-6.729 6.729a1.455 1.455 0 0 1-2.057-2.057l7.758-7.758a1.455 1.455 0 0 1 2.057 0l7.758 7.758a1.455 1.455 0 0 1 0 2.057z"/>
    </symbol>
    <symbol id="icon-chewron_down" viewBox="0 0 32 32">
      <path d="M16.467 20.018c-.156 0-.305-.022-.449-.067s-.273-.133-.384-.267l-6.033-6c-.178-.2-.267-.433-.267-.7s.1-.5.3-.7c.2-.178.433-.267.7-.267s.5.089.7.267l5.433 5.433 5.467-5.433c.178-.2.4-.295.667-.284s.5.106.7.284c.2.2.3.439.3.716s-.1.506-.3.684l-6 6c-.111.133-.239.222-.383.267s-.295.067-.451.067z"/>
    </symbol>
    <symbol id="icon-clock" viewBox="0 0 32 32">
      <path d="M15.987 26.225a10.243 10.243 0 0 0 10.24-10.24 10.243 10.243 0 0 0-10.24-10.24 10.243 10.243 0 0 0-10.24 10.24 10.243 10.243 0 0 0 10.24 10.24zm0-23.04a12.803 12.803 0 0 1 11.826 7.902 12.803 12.803 0 0 1-2.775 13.949 12.798 12.798 0 0 1-9.051 3.749c-7.078 0-12.8-5.76-12.8-12.8a12.8 12.8 0 0 1 12.8-12.8zm.64 6.4v6.72l5.76 3.418-.96 1.574-6.72-4.032v-7.68h1.92z"/>
    </symbol>
    <symbol id="icon-close" viewBox="0 0 32 32">
      <path d="m15.987 18.716 6.788 6.788a1.922 1.922 0 0 0 3.279-1.358c0-.509-.202-.998-.563-1.358L18.701 16l6.789-6.788a1.913 1.913 0 0 0 .562-1.358 1.931 1.931 0 0 0-.562-1.358 1.913 1.913 0 0 0-1.358-.562 1.931 1.931 0 0 0-1.358.562l-6.787 6.788-6.788-6.788a1.908 1.908 0 0 0-2.108-.444 1.927 1.927 0 0 0-1.194 1.793 1.925 1.925 0 0 0 .585 1.364l6.79 6.789-6.789 6.789a1.907 1.907 0 0 0-.585 1.364c-.002.255.047.508.143.744s.239.45.42.63a1.913 1.913 0 0 0 1.375.562A1.908 1.908 0 0 0 9.2 25.5l6.787-6.787z"/>
    </symbol>
    <symbol id="icon-eye_active" viewBox="0 0 32 32">
      <path d="M20 16a4.003 4.003 0 0 1-4 4 4.003 4.003 0 0 1-4-4 4.003 4.003 0 0 1 4-4 4.003 4.003 0 0 1 4 4z"/>
      <path d="M29.193 15.404c-2.877-5.756-7.987-8.737-13.192-8.737-5.204 0-10.315 2.981-13.192 8.737a1.34 1.34 0 0 0 0 1.192c2.877 5.756 7.987 8.737 13.192 8.737 5.204 0 10.315-2.981 13.192-8.737a1.326 1.326 0 0 0 0-1.192zm-13.192 7.263c-3.959 0-8.003-2.16-10.493-6.667 2.491-4.507 6.533-6.667 10.493-6.667 3.959 0 8.003 2.16 10.493 6.667-2.491 4.507-6.535 6.667-10.493 6.667z"/>
    </symbol>
    <symbol id="icon-eye_inactive" viewBox="0 0 32 32">
      <path d="m2.667 7.027 1.707-1.693 22.293 22.293-1.693 1.707-4.107-4.107c-1.533.507-3.16.773-4.867.773-6.667 0-12.36-4.147-14.667-10a15.674 15.674 0 0 1 4.253-6.053l-2.92-2.92zM16 12a4.003 4.003 0 0 1 3.773 5.333l-5.107-5.107a4.006 4.006 0 0 1 1.333-.227zm0-6c6.667 0 12.36 4.147 14.667 10a15.717 15.717 0 0 1-5.333 6.92l-1.893-1.907A13.144 13.144 0 0 0 27.761 16a13.092 13.092 0 0 0-11.76-7.333c-1.453 0-2.88.24-4.213.667l-2.053-2.04a15.813 15.813 0 0 1 6.267-1.293zM4.24 16A13.092 13.092 0 0 0 16 23.333c.92 0 1.827-.093 2.667-.28L15.627 20a4.089 4.089 0 0 1-3.626-3.626l-4.533-4.547A13.143 13.143 0 0 0 4.241 16z"/>
    </symbol>
    <symbol id="icon-facebook" viewBox="0 0 32 32">
      <path d="M14.9 10.027a3.818 3.818 0 0 1 2.7-1.118h1.964c.301 0 .545.244.545.545v2.618a.545.545 0 0 1-.545.545H17.6c-.029 0-.057.011-.077.032s-.032.048-.032.077v1.418h2.073a.543.543 0 0 1 .529.678l-.655 2.618a.545.545 0 0 1-.529.413h-1.418v4.691a.545.545 0 0 1-.545.545h-2.618a.545.545 0 0 1-.545-.545v-4.691h-1.418a.545.545 0 0 1-.545-.545V14.69c0-.301.244-.545.545-.545h1.418v-1.418c0-1.013.402-1.984 1.118-2.7zM17.6 10a2.724 2.724 0 0 0-2.727 2.727v1.964a.545.545 0 0 1-.545.545H12.91v1.527h1.418c.301 0 .545.244.545.545v4.691H16.4v-4.691c0-.301.244-.545.545-.545h1.538l.382-1.527h-1.92a.545.545 0 0 1-.545-.545v-1.964a1.201 1.201 0 0 1 1.201-1.199h1.418v-1.527h-1.418z"/>
    </symbol>
    <symbol id="icon-favourite" viewBox="0 0 32 32">
      <path d="m16.115 24.384-.128.128-.141-.128C9.766 18.867 5.747 15.219 5.747 11.52c0-2.56 1.92-4.48 4.48-4.48 1.971 0 3.891 1.28 4.57 3.021h2.381c.678-1.741 2.598-3.021 4.57-3.021 2.56 0 4.48 1.92 4.48 4.48 0 3.699-4.019 7.347-10.112 12.864zM21.747 4.48c-2.227 0-4.365 1.037-5.76 2.662-1.395-1.626-3.533-2.662-5.76-2.662-3.942 0-7.04 3.085-7.04 7.04 0 4.826 4.352 8.781 10.944 14.758l1.856 1.69 1.856-1.69c6.592-5.978 10.944-9.933 10.944-14.758 0-3.955-3.098-7.04-7.04-7.04z"/>
    </symbol>
    <symbol id="icon-instagram" viewBox="0 0 32 32">
      <path d="M18.909 12.364a.727.727 0 1 1 1.454 0 .727.727 0 0 1-1.454 0zM16 12.546a3.455 3.455 0 1 0 0 6.91 3.455 3.455 0 0 0 0-6.91zM13.636 16a2.364 2.364 0 1 1 4.728 0 2.364 2.364 0 0 1-4.728 0z"/>
      <path d="M19.824 9.333a34.675 34.675 0 0 0-7.648 0 3.194 3.194 0 0 0-2.817 2.787 33.447 33.447 0 0 0 0 7.759 3.192 3.192 0 0 0 2.817 2.787c2.521.282 5.127.282 7.648 0a3.194 3.194 0 0 0 2.817-2.787 33.447 33.447 0 0 0 0-7.759 3.192 3.192 0 0 0-2.817-2.787zm-7.527 1.085a33.588 33.588 0 0 1 7.406 0 2.101 2.101 0 0 1 1.854 1.83 32.267 32.267 0 0 1 0 7.506 2.102 2.102 0 0 1-1.854 1.83 33.588 33.588 0 0 1-7.406 0 2.102 2.102 0 0 1-1.854-1.83 32.267 32.267 0 0 1 0-7.506 2.102 2.102 0 0 1 1.854-1.83z"/>
    </symbol>
    <symbol id="icon-location" viewBox="0 0 32 32">
      <path stroke-linecap="round" stroke-linejoin="round" stroke-width="2.56" d="M15.987 17.265a3.84 3.84 0 1 0 0-7.68 3.84 3.84 0 0 0 0 7.68z"/>
      <path stroke-linecap="round" stroke-linejoin="round" stroke-width="2.56" d="M15.987 3.185a10.243 10.243 0 0 0-10.24 10.24c0 2.422.515 4.006 1.92 5.76l8.32 9.6 8.32-9.6c1.405-1.754 1.92-3.338 1.92-5.76a10.243 10.243 0 0 0-10.24-10.24z"/>
    </symbol>
    <symbol id="icon-order_ascending" viewBox="0 0 32 32">
      <path d="m24.947 3.935 5.65 5.65-1.81 1.81-2.56-2.56v17.39h-2.56V8.835l-2.56 2.56-1.81-1.81 5.65-5.65zM3.188 5.745h14.08v2.56H3.188v-2.56zm0 8.96h16.64v2.56H3.188v-2.56zm0 8.96h16.64v2.56H3.188v-2.56z"/>
    </symbol>
    <symbol id="icon-radio" viewBox="0 0 32 32">
      <path stroke-width="2.667" d="M30.667 16c0 8.1-6.567 14.667-14.667 14.667S1.333 24.101 1.333 16C1.333 7.9 7.899 1.333 16 1.333S30.667 7.899 30.667 16z"/>
      <path d="M24 16a8 8 0 1 1-16 0 8 8 0 0 1 16 0z"/>
    </symbol>
    <symbol id="icon-search" viewBox="0 0 32 32">
      <path d="M24.949 21.955h-1.577l-.559-.539a12.915 12.915 0 0 0 3.134-8.443A12.97 12.97 0 0 0 10.443.249a12.975 12.975 0 0 0 2.53 25.698 12.92 12.92 0 0 0 8.443-3.134l.539.559v1.577l9.98 9.96 2.974-2.974-9.96-9.98zm-11.975 0c-4.97 0-8.982-4.012-8.982-8.982s4.012-8.982 8.982-8.982 8.982 4.012 8.982 8.982-4.012 8.982-8.982 8.982z"/>
    </symbol>
    <symbol id="icon-youtube" viewBox="0 0 32 32">
      <path d="M14.826 13.351a.545.545 0 0 0-.826.468v4.364a.546.546 0 0 0 .826.468l3.636-2.182a.547.547 0 0 0 0-.936l-3.636-2.182zM17.122 16l-2.031 1.218v-2.437l2.031 1.218z"/>
      <path d="M19.659 10.649a46.79 46.79 0 0 0-7.317 0l-1.63.127a2.163 2.163 0 0 0-1.965 1.801 20.758 20.758 0 0 0 0 6.847c.164.98.974 1.723 1.965 1.801l1.63.128a46.79 46.79 0 0 0 7.317 0l1.63-.128a2.163 2.163 0 0 0 1.965-1.801 20.758 20.758 0 0 0 0-6.847 2.165 2.165 0 0 0-1.965-1.801l-1.63-.127zm-7.232 1.087a45.84 45.84 0 0 1 7.147 0l1.63.127c.491.038.893.407.975.893.359 2.148.359 4.34 0 6.488a1.073 1.073 0 0 1-.975.893l-1.63.128a45.84 45.84 0 0 1-7.147 0l-1.63-.128a1.074 1.074 0 0 1-.975-.893 19.677 19.677 0 0 1 0-6.488c.081-.486.483-.854.975-.893l1.63-.127z"/>
    </symbol>
  </defs>
</svg>